<svg width="79" height="69" viewBox="0 0 79 69" fill="none" xmlns="http://www.w3.org/2000/svg">
<path d="M41.8573 0.82608L7.00908 10.4404C7.00908 10.4404 0.608643 10.2604 0.608643 17.0587C0.608643 19.8643 1.85299 21.9552 1.85299 21.9552L28.4017 66.3578C30.9399 70.4013 36.3308 67.8696 36.3308 67.8696L77.0408 48.0369L75.5173 46.4913C75.1586 44.6352 74.9499 41.1983 77.4699 38.6391C77.526 38.5817 77.5365 38.5035 77.5665 38.4317L78.8695 37.9087L41.8573 0.82608ZM23.4673 26.7904L17.1856 16.9087L42.9386 9.29391L50.0643 17.0509L23.4673 26.7904V26.7904ZM74.1895 42.7491C74.1047 43.3491 74.0617 43.9335 74.0708 44.4813L47.346 57.1661L74.166 45.7843C74.1921 45.9917 74.2156 46.2004 74.2482 46.3883L39.9895 62.9352L74.5182 47.6222L74.5391 47.703L36.3308 65.9809C36.3126 65.9926 34.5686 66.92 32.8208 66.92C31.0939 66.92 30.0178 66.033 29.5273 64.2096C28.266 59.5243 35.4321 56.8687 35.5404 56.8296L75.1704 39.6839C74.886 40.2056 74.6891 40.7365 74.5247 41.2661L49.3678 53.1083L74.1895 42.7491" fill="#324001"/>
</svg>
