<svg xmlns="http://www.w3.org/2000/svg" version="1.1" xmlns:xlink="http://www.w3.org/1999/xlink" xmlns:svgjs="http://svgjs.com/svgjs" width="720" height="1440" preserveAspectRatio="none" viewBox="0 0 720 1440"><g mask="url(&quot;#SvgjsMask1000&quot;)" fill="none"><rect width="720" height="1440" x="0" y="0" fill="rgba(40, 51, 1, 1)"></rect><path d="M115.71 0C150.19 6.16 149.12 32.14 180 32.14C203.76 32.14 198.85 4.67 225 0C288.85 -11.4 292.5 0 360 0C450 0 450 0 540 0C630 0 675 -45 720 0C765 45 720 90 720 180C720 270 720 270 720 360C720 450 720 450 720 540C720 552.86 730.29 559.38 720 565.71C640.29 614.76 625.97 601.64 540 650.77C490.97 678.79 450 685.1 450 720C450 755.24 489.36 765.73 540 791.05C624.36 833.23 647.16 810.91 720 855C737.16 865.39 720 877.5 720 900C720 990 720 990 720 1080C720 1144.04 757.08 1175.12 720 1208.08C667.08 1255.12 626.6 1217.52 540 1240C526.6 1243.48 520 1247.09 520 1260C520 1302.09 507.16 1344.46 540 1350C607.16 1361.33 669.31 1268.41 720 1293.75C759.31 1313.41 760.34 1407.22 720 1440C670.34 1480.34 630 1440 540 1440C450 1440 450 1440 360 1440C270 1440 270 1440 180 1440C90 1440 45 1485 0 1440C-45 1395 0 1350 0 1260C0 1193.34 -25.97 1177.37 0 1126.67C20.13 1087.37 92.2 1106.54 92.2 1080C92.2 1051.17 22.68 1060.21 0 1015.93C-23.42 970.21 0 957.96 0 900C0 810 0 810 0 720C0 650 -38.21 596.98 0 580C51.79 556.98 113.94 652.97 180 640C215.78 632.97 203.68 589.29 203.68 540C203.68 507.14 208.02 482.79 180 475.71C106.18 457.07 52.56 522.35 0 488.57C-37.44 464.5 0 424.28 0 360C0 270 0 270 0 180C0 90 -35.22 54.78 0 0C22.64 -35.22 60.19 -9.91 115.71 0" stroke="rgba(242, 187, 19, 1)" stroke-width="2"></path><path d="M0 52.5C53.83 32.31 97.98 69.84 180 112.5C220.56 133.59 208.82 150.73 245.17 180C298.82 223.2 305.2 215.29 360 257.44C422.21 305.29 439.25 295.78 479.19 360C527.11 437.06 562.72 466.42 535.71 540C503.12 628.78 437.26 684.71 360 684.71C300.85 684.71 300.58 617.7 262.89 540C221.83 455.35 235.26 448.93 202.5 360C193.82 336.43 199.49 315 180 315C135.74 315 128.48 340.26 75 360C38.48 373.48 29.42 381.43 0 381.43C-8.08 381.43 0 370.72 0 360C0 270 0 270 0 180C0 116.25 -36.17 66.06 0 52.5" stroke="rgba(242, 187, 19, 1)" stroke-width="2"></path><path d="M360 21.43C345.96 15.12 337.5 6.21 337.5 0C337.5 -4.5 348.75 0 360 0C450 0 450 0 540 0C630 0 675 -45 720 0C765 45 720 90 720 180C720 270 720 270 720 360C720 402.96 737.24 445.91 720 445.91C696.15 445.91 645.87 412.08 637.83 360C625.34 279.12 704.78 251.02 678.95 180C655.87 116.53 613.51 127.55 540 91.01C454.03 48.27 447.21 60.62 360 21.43" stroke="rgba(242, 187, 19, 1)" stroke-width="2"></path><path d="M0 663.33C29.36 663.33 76.01 676.14 90 720C113.75 794.47 106.05 825.4 75.48 900C61.05 935.23 25.76 939.66 0 939.66C-11.98 939.66 0 919.83 0 900C0 810 0 810 0 720C0 691.66 -15.64 663.33 0 663.33" stroke="rgba(242, 187, 19, 1)" stroke-width="2"></path><path d="M414.55 1080C480.18 999.73 463.31 930.83 540 914.4C616.04 898.11 651.7 951.72 720 1014.55C741.7 1034.52 720 1047.28 720 1080C720 1100.77 736.62 1114.46 720 1121.54C646.62 1152.8 618.84 1118.14 540 1156.67C477.18 1187.37 448.79 1197.73 436.67 1260C421.21 1339.4 507.8 1386.11 484.84 1440C469.46 1476.11 422.42 1440 360 1440C270 1440 270 1440 180 1440C122.26 1440 115.01 1457.76 64.53 1440C25.01 1426.09 14.09 1415.96 0 1376.67C-18.18 1325.96 0 1318.34 0 1260C0 1221.11 -22.64 1182.22 0 1182.22C45.84 1182.22 72.25 1216.22 136.96 1260C162.25 1277.11 156.83 1304 180 1304C207.47 1304 211.73 1284.96 238.24 1260C301.73 1200.23 298.84 1196.99 360 1134.55C386.99 1106.99 390.18 1109.81 414.55 1080" stroke="rgba(242, 187, 19, 1)" stroke-width="2"></path><path d="M597.97 1440C597.97 1415.07 681.71 1350 720 1350C742.73 1350 745.9 1420.9 720 1440C684.88 1465.9 597.97 1460.07 597.97 1440" stroke="rgba(242, 187, 19, 1)" stroke-width="2"></path><path d="M540 40.45C494.34 21.79 450 10.58 450 0C450 -9.65 495 0 540 0C630 0 664.2 -34.2 720 0C754.2 20.96 752.72 102.97 720 110.32C662.72 123.19 629.34 76.95 540 40.45" stroke="rgba(242, 187, 19, 1)" stroke-width="2"></path><path d="M282.86 360C289.17 321.65 323.11 309.77 360 309.77C390.87 309.77 408.12 325.54 418.38 360C442.4 440.66 448.13 460.79 428.57 540C418.94 579.03 390.15 596.47 360 596.47C336.92 596.47 332.51 571.88 322.11 540C293.94 453.64 270.23 436.76 282.86 360" stroke="rgba(242, 187, 19, 1)" stroke-width="2"></path><path d="M0 1237.78C13.1 1237.78 39.13 1247.03 39.13 1260C39.13 1274.81 11.87 1293.33 0 1293.33C-7.7 1293.33 0 1276.66 0 1260C0 1248.89 -6.47 1237.78 0 1237.78" stroke="rgba(242, 187, 19, 1)" stroke-width="2"></path><path d="M149.43 1440C149.43 1429.07 161.37 1418.33 180 1404C266.66 1337.33 294.56 1267.86 360 1278C410.69 1285.86 412.26 1378.03 412.26 1440C412.26 1459.03 386.13 1440 360 1440C270 1440 270 1440 180 1440C164.72 1440 149.43 1447.07 149.43 1440" stroke="rgba(242, 187, 19, 1)" stroke-width="2"></path><path d="M674.24 1440C674.24 1430.65 705.64 1406.25 720 1406.25C728.52 1406.25 729.71 1432.84 720 1440C706.83 1449.71 674.24 1447.52 674.24 1440" stroke="rgba(242, 187, 19, 1)" stroke-width="2"></path></g><defs><mask id="SvgjsMask1000"><rect width="720" height="1440" fill="#ffffff"></rect></mask></defs></svg>