<svg width="50" height="71" viewBox="0 0 50 71" fill="none" xmlns="http://www.w3.org/2000/svg">
<path fill-rule="evenodd" clip-rule="evenodd" d="M5.60875 9.65215C5.1475 9.65215 4.70515 9.83538 4.379 10.1615C4.05285 10.4877 3.86962 10.93 3.86962 11.3913V65.3043C3.86962 65.7656 4.05285 66.2079 4.379 66.5341C4.70515 66.8602 5.1475 67.0435 5.60875 67.0435H43.8696C44.3309 67.0435 44.7732 66.8602 45.0994 66.5341C45.4255 66.2079 45.6088 65.7656 45.6088 65.3043V11.3913C45.6088 10.93 45.4255 10.4877 45.0994 10.1615C44.7732 9.83538 44.3309 9.65215 43.8696 9.65215H34.1601V6.17389H43.8696C45.2534 6.17389 46.5804 6.72358 47.5589 7.70203C48.5373 8.68048 49.087 10.0075 49.087 11.3913V65.3043C49.087 66.6881 48.5373 68.0151 47.5589 68.9936C46.5804 69.972 45.2534 70.5217 43.8696 70.5217H5.60875C4.22501 70.5217 2.89795 69.972 1.9195 68.9936C0.941045 68.0151 0.391357 66.6881 0.391357 65.3043V11.3913C0.391357 10.0075 0.941045 8.68048 1.9195 7.70203C2.89795 6.72358 4.22501 6.17389 5.60875 6.17389H15.3183V9.65215H5.60875Z" fill="#324001"/>
<path fill-rule="evenodd" clip-rule="evenodd" d="M12.5653 6.1739C12.5653 4.79017 13.115 3.4631 14.0934 2.48465C15.0719 1.5062 16.399 0.956512 17.7827 0.956512H31.6957C33.0795 0.956512 34.4065 1.5062 35.385 2.48465C36.3634 3.4631 36.9131 4.79017 36.9131 6.1739V9.65216C36.9131 11.0359 36.3634 12.363 35.385 13.3414C34.4065 14.3199 33.0795 14.8696 31.6957 14.8696H17.7827C16.399 14.8696 15.0719 14.3199 14.0934 13.3414C13.115 12.363 12.5653 11.0359 12.5653 9.65216V6.1739ZM17.7827 4.43477C17.3214 4.43477 16.8791 4.618 16.5529 4.94415C16.2268 5.2703 16.0436 5.71266 16.0436 6.1739V9.65216C16.0436 10.1134 16.2268 10.5558 16.5529 10.8819C16.8791 11.2081 17.3214 11.3913 17.7827 11.3913H31.6957C32.157 11.3913 32.5993 11.2081 32.9255 10.8819C33.2516 10.5558 33.4349 10.1134 33.4349 9.65216V6.1739C33.4349 5.71266 33.2516 5.2703 32.9255 4.94415C32.5993 4.618 32.157 4.43477 31.6957 4.43477H17.7827ZM9.08704 30.5217C9.08704 30.0605 9.27027 29.6181 9.59642 29.292C9.92257 28.9658 10.3649 28.7826 10.8262 28.7826H23.0001C23.4613 28.7826 23.9037 28.9658 24.2298 29.292C24.556 29.6181 24.7392 30.0605 24.7392 30.5217C24.7392 30.983 24.556 31.4253 24.2298 31.7515C23.9037 32.0776 23.4613 32.2609 23.0001 32.2609H10.8262C10.3649 32.2609 9.92257 32.0776 9.59642 31.7515C9.27027 31.4253 9.08704 30.983 9.08704 30.5217ZM9.08704 21.8261C9.08704 21.3648 9.27027 20.9225 9.59642 20.5963C9.92257 20.2702 10.3649 20.0869 10.8262 20.0869H37.7827C38.2439 20.0869 38.6863 20.2702 39.0124 20.5963C39.3386 20.9225 39.5218 21.3648 39.5218 21.8261C39.5218 22.2873 39.3386 22.7297 39.0124 23.0558C38.6863 23.382 38.2439 23.5652 37.7827 23.5652H10.8262C10.3649 23.5652 9.92257 23.382 9.59642 23.0558C9.27027 22.7297 9.08704 22.2873 9.08704 21.8261ZM12.5653 44.4348V47.913H16.0436V44.4348H12.5653ZM10.8262 40.9565C10.3649 40.9565 9.92257 41.1397 9.59642 41.4659C9.27027 41.792 9.08704 42.2344 9.08704 42.6956V49.6522C9.08704 50.1134 9.27027 50.5558 9.59642 50.8819C9.92257 51.2081 10.3649 51.3913 10.8262 51.3913H17.7827C18.2439 51.3913 18.6863 51.2081 19.0124 50.8819C19.3386 50.5558 19.5218 50.1134 19.5218 49.6522V42.6956C19.5218 42.2344 19.3386 41.792 19.0124 41.4659C18.6863 41.1397 18.2439 40.9565 17.7827 40.9565H10.8262ZM31.6957 44.4348C31.9304 44.4455 32.1648 44.4086 32.3849 44.3262C32.6049 44.2439 32.8059 44.1178 32.9759 43.9556C33.1459 43.7934 33.2812 43.5985 33.3737 43.3825C33.4663 43.1666 33.5141 42.9341 33.5143 42.6992C33.5146 42.4643 33.4672 42.2317 33.3751 42.0156C33.283 41.7995 33.1481 41.6043 32.9784 41.4417C32.8088 41.2792 32.608 41.1527 32.3881 41.0699C32.1683 40.9871 31.9339 40.9497 31.6992 40.96C31.2519 40.9796 30.8293 41.1709 30.5195 41.4943C30.2097 41.8176 30.0365 42.2479 30.0361 42.6957C30.0356 43.1435 30.2079 43.5742 30.5171 43.8982C30.8262 44.2221 31.2484 44.4143 31.6957 44.4348V44.4348ZM31.6957 47.913C33.0795 47.913 34.4065 47.3633 35.385 46.3849C36.3634 45.4064 36.9131 44.0794 36.9131 42.6956C36.9131 41.3119 36.3634 39.9848 35.385 39.0064C34.4065 38.0279 33.0795 37.4783 31.6957 37.4783C30.312 37.4783 28.9849 38.0279 28.0065 39.0064C27.028 39.9848 26.4783 41.3119 26.4783 42.6956C26.4783 44.0794 27.028 45.4064 28.0065 46.3849C28.9849 47.3633 30.312 47.913 31.6957 47.913V47.913ZM24.7392 55.3565C24.7696 55.3209 24.8015 55.2867 24.8349 55.2539C25.1201 54.9756 25.6696 54.6069 26.5323 54.24C28.2714 53.5009 30.4175 53.1304 31.6957 53.1304C32.974 53.1304 35.1201 53.5009 36.8592 54.24C37.7218 54.6052 38.2714 54.9756 38.5566 55.2539C38.5899 55.2861 38.6218 55.3198 38.6523 55.3548V58.3478H24.7392V55.3565ZM31.6957 49.6522C28.2123 49.6522 21.2609 51.5061 21.2609 55.1861V61.8261H42.1305V55.1861C42.1305 51.5061 35.1792 49.6522 31.6957 49.6522Z" fill="#324001"/>
</svg>
